<svg width="55" height="55" viewBox="0 0 55 55" fill="none" xmlns="http://www.w3.org/2000/svg">
<path id="github-logo" d="M27.5 0C12.3136 0 0 12.6328 0 28.1998C0 40.6607 7.8817 51.2187 18.808 54.9509C18.9613 54.9842 19.1177 55.0006 19.2746 55C20.2935 55 20.6864 54.2511 20.6864 53.6004C20.6864 52.9252 20.6618 51.1573 20.6496 48.8002C19.7399 49.0135 18.8093 49.1246 17.875 49.1317C12.5837 49.1317 11.3806 45.019 11.3806 45.019C10.1283 41.7656 8.32366 40.894 8.32366 40.894C5.92969 39.212 8.31138 39.1629 8.49554 39.1629H8.50781C11.2701 39.4085 12.7188 42.0848 12.7188 42.0848C14.0938 44.4911 15.9353 45.1663 17.5804 45.1663C18.6681 45.1445 19.7391 44.8935 20.7232 44.4297C20.9688 42.6127 21.6808 41.3728 22.4665 40.6607C16.365 39.9486 9.9442 37.5301 9.9442 26.7266C9.9442 23.6451 11.0123 21.1283 12.7679 19.1641C12.4855 18.452 11.5402 15.5792 13.0379 11.6998C13.2389 11.6517 13.4453 11.6311 13.6518 11.6384C14.6462 11.6384 16.8929 12.019 20.6004 14.5971C25.1055 13.3366 29.87 13.3366 34.375 14.5971C38.0826 12.019 40.3292 11.6384 41.3237 11.6384C41.5301 11.6311 41.7366 11.6517 41.9375 11.6998C43.4353 15.5792 42.49 18.452 42.2076 19.1641C43.9632 21.1406 45.0312 23.6574 45.0312 26.7266C45.0312 37.5547 38.5982 39.9364 32.4721 40.6361C33.4542 41.5078 34.3382 43.2265 34.3382 45.8538C34.3382 49.6227 34.3013 52.6674 34.3013 53.5881C34.3013 54.2511 34.6819 55 35.7009 55C35.8658 55.0007 36.0304 54.9842 36.192 54.9509C47.1306 51.2187 55 40.6484 55 28.1998C55 12.6328 42.6864 0 27.5 0Z" fill="#EDF2F4"/>
</svg>
