<svg width="77" height="71" viewBox="0 0 77 71" fill="none" xmlns="http://www.w3.org/2000/svg">
<g id="header-icon" clip-path="url(#clip0_38:46)">
<path id="Vector" d="M20.0724 70.9236C18.5034 70.9236 16.9343 70.9236 15.4194 70.9236C14.7161 70.9236 14.0127 70.8699 13.3634 70.7081C11.7403 70.2773 10.7664 69.0925 10.8205 67.4232C10.8746 65.484 11.0369 63.5452 11.1992 61.6064C11.3074 60.4216 11.7944 59.4522 12.9306 58.9137C13.2011 58.7519 13.4716 58.4828 13.634 58.2133C15.2571 54.3894 17.259 50.7809 19.1526 47.1188C19.9101 45.6645 20.6676 44.2106 21.2086 42.6486C22.9941 37.7476 24.7254 32.8466 26.4568 27.8918C27.5389 24.8757 29.0538 22.129 31.0016 19.49C32.0837 18.0359 32.8953 16.4202 33.6527 14.8044C34.5725 12.9194 35.6005 11.1422 37.1695 9.74184C37.7647 9.20329 38.2516 8.50314 38.7927 7.85683C39.8748 6.67198 41.1735 6.18729 42.7422 6.51042C43.7161 6.72584 44.4196 7.37214 44.9606 8.18C47.9904 12.704 51.0205 17.1742 53.996 21.752C55.6734 24.3372 57.1882 26.9762 58.8113 29.5613C62.8692 36.0242 67.0896 42.3795 71.5804 48.5731C73.0409 50.5655 74.3937 52.7201 75.584 54.8743C76.8824 57.1903 77.0449 59.7753 76.9906 62.4144C76.9906 63.1144 76.6121 63.6529 75.9086 63.8683C75.0429 64.1378 74.1773 64.4069 73.2573 64.5146C61.7872 66.0225 50.2631 67.5309 38.7927 68.9848C35.3841 69.4156 31.9214 69.8465 28.4587 70.1696C25.6452 70.4391 22.8318 70.5468 20.0183 70.7622C20.0724 70.8699 20.0724 70.9236 20.0724 70.9236ZM19.3149 60.0444C20.0183 60.0985 20.5052 60.2062 20.9922 60.2062C22.8318 60.1521 24.7254 60.1521 26.565 60.0444C31.9755 59.7753 37.3859 59.3982 42.6883 58.5365C45.8263 57.9979 48.9642 57.3517 52.1565 56.9749C55.6195 56.544 59.1359 56.3823 62.6528 56.1128C63.1399 56.0591 63.6267 56.0051 64.222 55.8974C64.0056 55.5742 63.9513 55.4129 63.8431 55.2511C58.8656 48.8422 54.3206 42.1101 49.776 35.4318C48.8021 34.0315 47.6119 32.7389 46.5837 31.3925C45.1771 29.6152 43.7704 27.784 42.3637 25.9529C42.2012 25.7375 42.0391 25.4143 41.9309 25.1451C41.4438 23.9602 41.4981 22.8292 42.3637 21.8597C43.2294 20.8903 44.3114 20.6749 45.556 20.998C45.8263 21.0519 46.0427 21.1058 46.5298 21.2135C44.9063 18.6283 43.3376 16.2586 41.6602 13.9966C40.5781 14.6967 39.983 15.6661 39.496 16.6894C38.4139 18.9515 37.4401 21.2673 35.8169 23.2062C34.2479 25.1989 33.0576 27.3532 32.1919 29.7229C31.1098 32.6851 30.1359 35.6472 29.0538 38.6094C27.8635 41.7869 26.8355 45.0723 25.4288 48.1422C23.8057 51.643 21.912 54.928 20.1265 58.3211C19.8019 58.8596 19.5855 59.3982 19.3149 60.0444Z" fill="#EDF2F4"/>
<g id="Vector_2">
<mask id="path-2-inside-1_38:46" fill="white">
<path d="M0 66.13C0.378734 64.5144 0.64926 62.8451 1.19031 61.2831C3.78734 53.8507 6.87132 46.6341 10.0635 39.4709C14.5001 29.5073 19.4778 19.813 24.5095 10.1725C25.8621 7.58736 27.3229 5.00219 29.1625 2.74019C29.8118 1.93233 30.5692 1.23219 31.3267 0.532044C32.0842 -0.168102 32.8416 -0.168102 33.6532 0.478185C34.086 0.801328 34.4648 1.17833 34.7353 1.55533C36.1961 3.54805 37.7111 5.48693 39.0637 7.5335C42.9052 13.6194 46.6924 19.7591 50.4257 25.8988C51.7784 28.1609 53.1851 30.369 54.4836 32.6848C56.4856 36.2394 58.92 39.5786 61.3009 42.9179C63.9517 46.58 65.9537 50.5653 67.6311 54.7664C67.9557 55.6281 68.1722 56.5975 68.2261 57.5132C68.3886 59.0212 67.685 60.206 66.3327 60.9059C65.5752 61.2831 64.7635 61.6062 63.8978 61.768C61.1927 62.3065 58.4333 62.6297 55.6738 62.5756C47.6662 62.4142 39.8212 63.4373 31.8677 64.299C24.2389 65.1607 16.5561 65.9146 8.9273 66.7227C6.76311 66.9381 4.54482 67.3153 2.38061 67.6384C2.2183 67.6384 2.05599 67.692 1.89367 67.7461C0.324629 67.9615 0.0541047 67.7461 0 66.13Z"/>
</mask>
<path d="M0 66.13C0.378734 64.5144 0.64926 62.8451 1.19031 61.2831C3.78734 53.8507 6.87132 46.6341 10.0635 39.4709C14.5001 29.5073 19.4778 19.813 24.5095 10.1725C25.8621 7.58736 27.3229 5.00219 29.1625 2.74019C29.8118 1.93233 30.5692 1.23219 31.3267 0.532044C32.0842 -0.168102 32.8416 -0.168102 33.6532 0.478185C34.086 0.801328 34.4648 1.17833 34.7353 1.55533C36.1961 3.54805 37.7111 5.48693 39.0637 7.5335C42.9052 13.6194 46.6924 19.7591 50.4257 25.8988C51.7784 28.1609 53.1851 30.369 54.4836 32.6848C56.4856 36.2394 58.92 39.5786 61.3009 42.9179C63.9517 46.58 65.9537 50.5653 67.6311 54.7664C67.9557 55.6281 68.1722 56.5975 68.2261 57.5132C68.3886 59.0212 67.685 60.206 66.3327 60.9059C65.5752 61.2831 64.7635 61.6062 63.8978 61.768C61.1927 62.3065 58.4333 62.6297 55.6738 62.5756C47.6662 62.4142 39.8212 63.4373 31.8677 64.299C24.2389 65.1607 16.5561 65.9146 8.9273 66.7227C6.76311 66.9381 4.54482 67.3153 2.38061 67.6384C2.2183 67.6384 2.05599 67.692 1.89367 67.7461C0.324629 67.9615 0.0541047 67.7461 0 66.13Z" fill="#2B2D42"/>
<path d="M0 66.13L-0.486804 66.0159L-0.501939 66.0805L-0.49972 66.1468L0 66.13ZM1.19031 61.2831L0.71829 61.1181L0.717847 61.1194L1.19031 61.2831ZM10.0635 39.4709L10.5202 39.6744L10.5203 39.6743L10.0635 39.4709ZM24.5095 10.1725L24.0665 9.94068L24.0662 9.94113L24.5095 10.1725ZM29.1625 2.74019L29.5504 3.05567L29.5522 3.05342L29.1625 2.74019ZM31.3267 0.532044L30.9873 0.164869L30.9873 0.164877L31.3267 0.532044ZM33.6532 0.478185L33.3417 0.869318L33.3478 0.874175L33.3541 0.878839L33.6532 0.478185ZM34.7353 1.55533L34.329 1.84684L34.3321 1.85095L34.7353 1.55533ZM39.0637 7.5335L39.4866 7.26656L39.4808 7.25782L39.0637 7.5335ZM50.4257 25.8988L50.8548 25.6422L50.8529 25.639L50.4257 25.8988ZM54.4836 32.6848L54.0475 32.9294L54.0479 32.9302L54.4836 32.6848ZM61.3009 42.9179L60.8938 43.2082L60.8959 43.2111L61.3009 42.9179ZM67.6311 54.7664L68.0991 54.5901L68.0955 54.581L67.6311 54.7664ZM68.2261 57.5132L67.7269 57.5426L67.7276 57.5547L67.7289 57.5668L68.2261 57.5132ZM66.3327 60.9059L66.5556 61.3535L66.5625 61.3499L66.3327 60.9059ZM63.8978 61.768L63.806 61.2765L63.8002 61.2776L63.8978 61.768ZM55.6738 62.5756L55.6638 63.0755L55.664 63.0755L55.6738 62.5756ZM31.8677 64.299L31.8139 63.8019L31.8116 63.8021L31.8677 64.299ZM8.9273 66.7227L8.97682 67.2202L8.97996 67.2199L8.9273 66.7227ZM2.38061 67.6384V68.1384H2.41773L2.45445 68.1329L2.38061 67.6384ZM1.89367 67.7461L1.96168 68.2415L2.00764 68.2351L2.05166 68.2205L1.89367 67.7461ZM0.486804 66.2442C0.876492 64.5818 1.13279 62.9768 1.66277 61.4467L0.717847 61.1194C0.165732 62.7134 -0.119024 64.447 -0.486804 66.0159L0.486804 66.2442ZM1.66232 61.448C4.25237 54.0356 7.32956 46.8342 10.5202 39.6744L9.60679 39.2674C6.41308 46.434 3.32231 53.6657 0.718292 61.1181L1.66232 61.448ZM10.5203 39.6743C14.95 29.7261 19.9213 20.0437 24.9528 10.4038L24.0662 9.94113C19.0342 19.5822 14.0502 29.2885 9.60673 39.2675L10.5203 39.6743ZM24.9525 10.4043C26.3021 7.82488 27.744 5.27685 29.5504 3.05566L28.7746 2.42472C26.9018 4.72753 25.4221 7.34983 24.0665 9.94068L24.9525 10.4043ZM29.5522 3.05342C30.1745 2.27917 30.9041 1.60352 31.6661 0.899211L30.9873 0.164877C30.2344 0.860854 29.449 1.5855 28.7728 2.42697L29.5522 3.05342ZM31.6661 0.89922C31.9844 0.605007 32.2509 0.504099 32.4784 0.500126C32.71 0.496081 32.9921 0.59087 33.3417 0.869318L33.9647 0.0870517C33.5028 -0.280787 33.0003 -0.509142 32.4609 -0.499722C31.9174 -0.49023 31.4265 -0.241065 30.9873 0.164869L31.6661 0.89922ZM33.3541 0.878839C33.7524 1.17623 34.0929 1.51769 34.3291 1.84682L35.1415 1.26384C34.8367 0.838971 34.4197 0.426426 33.9523 0.0775314L33.3541 0.878839ZM34.3321 1.85095C35.8051 3.86033 37.3028 5.776 38.6466 7.80919L39.4808 7.25782C38.1194 5.19785 36.5872 3.23578 35.1386 1.25972L34.3321 1.85095ZM38.6409 7.80039C42.4806 13.8834 46.2663 20.0207 49.9985 26.1586L50.8529 25.639C47.1185 19.4975 43.3298 13.3554 39.4865 7.26661L38.6409 7.80039ZM49.9966 26.1554C51.3595 28.4345 52.753 30.6206 54.0475 32.9294L54.9197 32.4403C53.6173 30.1174 52.1974 27.8872 50.8548 25.6422L49.9966 26.1554ZM54.0479 32.9302C56.066 36.5133 58.5188 39.8772 60.8938 43.2082L61.708 42.6276C59.3212 39.28 56.9052 35.9656 54.9192 32.4395L54.0479 32.9302ZM60.8959 43.2111C63.5157 46.8304 65.4996 50.7763 67.1668 54.9518L68.0955 54.581C66.4079 50.3543 64.3877 46.3297 61.7059 42.6247L60.8959 43.2111ZM67.1632 54.9427C67.4714 55.7607 67.6762 56.6807 67.7269 57.5426L68.7252 57.4838C68.6681 56.5143 68.4401 55.4955 68.099 54.5901L67.1632 54.9427ZM67.7289 57.5668C67.8674 58.8513 67.2888 59.848 66.1028 60.4618L66.5625 61.3499C68.0812 60.5639 68.9098 59.191 68.7232 57.4596L67.7289 57.5668ZM66.1098 60.4583C65.3762 60.8236 64.6102 61.1262 63.806 61.2765L63.9897 62.2595C64.9168 62.0862 65.7743 61.7425 66.5555 61.3535L66.1098 60.4583ZM63.8002 61.2776C61.1205 61.8111 58.3982 62.1289 55.6836 62.0757L55.664 63.0755C58.4684 63.1304 61.2649 62.802 63.9955 62.2584L63.8002 61.2776ZM55.6839 62.0757C47.636 61.9135 39.7508 62.942 31.8139 63.8019L31.9216 64.7961C39.8915 63.9326 47.6965 62.915 55.6638 63.0755L55.6839 62.0757ZM31.8116 63.8021C24.1847 64.6636 16.509 65.4168 8.87463 66.2254L8.97996 67.2199C16.6032 66.4124 24.2932 65.6577 31.9239 64.7958L31.8116 63.8021ZM8.87777 66.2251C6.69737 66.4421 4.45711 66.8228 2.30678 67.1439L2.45445 68.1329C4.63254 67.8077 6.82885 67.434 8.97682 67.2202L8.87777 66.2251ZM2.38061 67.1384C2.123 67.1384 1.88235 67.2229 1.73568 67.2717L2.05166 68.2205C2.22962 68.1612 2.3136 68.1384 2.38061 68.1384V67.1384ZM1.82566 67.2507C1.43814 67.304 1.16845 67.3246 0.974088 67.3127C0.783852 67.301 0.722836 67.2611 0.70173 67.2432C0.680187 67.225 0.629431 67.1697 0.58475 66.98C0.539257 66.7868 0.513066 66.5119 0.49972 66.1133L-0.49972 66.1468C-0.486013 66.5562 -0.4581 66.9142 -0.38862 67.2092C-0.318328 67.5077 -0.193244 67.7958 0.0557372 68.0065C0.305155 68.2176 0.609347 68.2922 0.912817 68.3108C1.21216 68.3292 1.56468 68.296 1.96168 68.2415L1.82566 67.2507Z" fill="#FFC300" mask="url(#path-2-inside-1_38:46)"/>
</g>
<mask id="mask0_38:46" style="mask-type:alpha" maskUnits="userSpaceOnUse" x="0" y="0" width="69" height="68">
<g id="mask0">
<path id="Vector_3" d="M0 66.13C0.378734 64.5144 0.64926 62.8451 1.19031 61.2831C3.78734 53.8507 6.87132 46.6341 10.0635 39.4709C14.5001 29.5073 19.4778 19.813 24.5095 10.1725C25.8621 7.58736 27.3229 5.00219 29.1625 2.74019C29.8118 1.93233 30.5692 1.23219 31.3267 0.532044C32.0842 -0.168102 32.8416 -0.168102 33.6532 0.478185C34.086 0.801328 34.4648 1.17833 34.7353 1.55533C36.1961 3.54805 37.7111 5.48693 39.0637 7.5335C42.9052 13.6194 46.6924 19.7591 50.4257 25.8988C51.7784 28.1609 53.1851 30.369 54.4836 32.6848C56.4856 36.2394 58.92 39.5786 61.3009 42.9179C63.9517 46.58 65.9537 50.5653 67.6311 54.7664C67.9557 55.6281 68.1722 56.5975 68.2261 57.5132C68.3886 59.0212 67.685 60.206 66.3327 60.9059C65.5752 61.2831 64.7635 61.6062 63.8978 61.768C61.1927 62.3065 58.4333 62.6297 55.6738 62.5756C47.6662 62.4142 39.8212 63.4373 31.8677 64.299C24.2389 65.1607 16.5561 65.9146 8.9273 66.7227C6.76311 66.9381 4.54482 67.3153 2.38061 67.6384C2.2183 67.6384 2.05599 67.692 1.89367 67.7461C0.324629 67.9615 0.0541047 67.7461 0 66.13Z" fill="black"/>
</g>
</mask>
<g mask="url(#mask0_38:46)">
<g id="Group">
<path id="Vector_4" d="M10.4661 89.3969C10.2132 88.5711 10.43 87.7813 10.7913 87.0632C11.4055 85.8784 12.0197 84.6581 12.7423 83.5092C15.3798 79.4521 18.4147 75.6826 21.5219 71.985C28.0976 64.1225 35.0346 56.5836 42.2608 49.2597C49.6674 41.7922 57.9048 35.366 66.7569 29.7296C68.78 28.4372 70.7674 27.1089 72.7544 25.8164C73.188 25.5292 73.5856 25.242 73.9467 24.7035C73.2962 24.524 72.7544 24.5599 72.2126 24.6676C70.5867 24.9907 68.9247 25.2779 67.2988 25.7446C60.9398 27.5037 54.8701 30.0168 48.8722 32.7812C33.6978 39.7818 19.8599 48.793 7.14214 59.5632C4.61305 61.7174 2.0478 63.7994 -0.481303 65.9177C-0.842607 66.2408 -1.24004 66.5281 -1.63747 66.8153C-1.89038 66.9948 -2.21555 67.1384 -2.50459 66.8871C-2.82976 66.564 -2.61298 66.2408 -2.3962 65.9536C-2.14329 65.6305 -1.89038 65.3432 -1.60134 65.056C2.0478 61.0352 5.91371 57.2654 9.99641 53.7113C25.1711 40.4279 41.8272 29.227 59.7475 19.9287C62.4935 18.4926 65.2392 17.0207 67.9853 15.5129C68.8886 15.0103 69.7555 14.4 70.5867 13.8256C70.8756 13.6101 71.1285 13.3229 71.49 12.928C71.0564 12.8203 70.8035 12.6767 70.5506 12.7126C69.1776 12.7844 67.7685 12.7844 66.4315 12.9998C60.3619 14.005 54.5086 15.7642 48.728 17.7747C32.6861 23.4111 17.7283 31.2016 3.67366 40.751C1.46972 42.259 -0.734215 43.8028 -2.97428 45.3108C-3.51623 45.6694 -4.09431 46.0284 -4.67242 46.3515C-4.85304 46.4593 -5.06982 46.6029 -5.28659 46.6388C-5.50341 46.6747 -5.8647 46.6747 -5.90081 46.567C-5.97307 46.3515 -5.97307 46.0643 -5.8647 45.8848C-5.72018 45.598 -5.46726 45.3826 -5.25048 45.1671C-3.73301 43.8387 -2.25168 42.4744 -0.661957 41.2178C5.0466 36.6944 11.1887 32.8171 17.4392 29.1193C27.9892 22.8726 39.0089 17.631 50.3178 12.928C53.0274 11.7792 55.737 10.6304 58.447 9.44566C59.3864 9.01482 60.2897 8.51222 61.1927 8.00961C61.5181 7.83009 61.807 7.5429 62.2767 7.18391C61.5542 7.00439 61.0484 6.93259 60.5061 6.96849C58.0494 7.14801 55.6288 7.61471 53.2442 8.18913C44.4285 10.3432 35.9378 13.4665 27.6279 17.1643C19.8599 20.6108 12.3449 24.524 5.11886 28.9398C3.92657 29.6578 2.84267 30.4835 1.72263 31.3093C1.50585 31.4887 1.14455 31.5965 1.21681 32.0273C1.21681 32.0991 0.963898 32.2068 0.819377 32.3145C0.710989 32.1709 0.53034 31.9914 0.566469 31.8837C0.638727 31.6324 0.783248 31.4169 0.963898 31.2375C1.57811 30.6989 2.19232 30.1604 2.84267 29.7296C5.84145 27.6474 8.98479 25.8882 12.2004 24.165C23.0033 18.3491 34.2036 13.3947 45.9819 9.76875C49.8481 8.58402 53.75 7.507 57.7244 6.86078C58.772 6.68126 59.8561 6.57359 60.9037 6.46588C61.3373 6.42998 61.8431 6.50179 62.2767 6.6095C62.8186 6.75307 62.9993 7.21977 62.6378 7.68652C62.3849 8.00961 62.096 8.29684 61.771 8.51222C60.8676 9.05073 59.9282 9.62514 58.9528 10.0559C54.6894 11.9228 50.426 13.7538 46.1627 15.5847C32.8668 21.1852 20.0767 27.8987 7.97313 35.9404C4.21561 38.4176 0.566469 41.0382 -2.86589 43.9464C-3.08267 44.1618 -3.33558 44.3414 -3.4801 44.6645C-3.19106 44.485 -2.93815 44.3055 -2.64911 44.1259C1.46972 41.3614 5.5163 38.4894 9.70737 35.8327C23.2923 27.3243 37.6721 20.539 52.9553 15.6924C57.2186 14.3282 61.5541 13.1434 65.9618 12.4254C67.4434 12.1741 68.9247 12.1023 70.442 11.9946C70.7674 11.9587 71.1285 12.0305 71.4539 12.1741C72.0318 12.3895 72.2486 12.8921 71.9236 13.3947C71.7068 13.7178 71.4174 14.0409 71.0924 14.2564C70.1891 14.9026 69.2497 15.5488 68.2742 16.1232C64.4806 18.2055 60.6869 20.2518 56.8572 22.2982C38.9367 31.9555 22.4252 43.5515 7.39506 57.2295C6.13052 58.3784 4.90209 59.5991 3.63753 60.7839C3.34849 61.0711 3.02332 61.3225 2.73427 61.5738C2.7704 61.6456 2.80653 61.6815 2.8788 61.7533C3.09557 61.5738 3.31236 61.3943 3.52914 61.2507C7.43117 58.1271 11.2248 54.8962 15.1992 51.8803C28.3866 41.8281 42.7305 33.7864 58.3023 27.9346C62.1321 26.4985 65.9983 25.1343 70.0448 24.3086C71.1285 24.0932 72.2126 24.0214 73.2962 23.8778C73.477 23.8419 73.6577 23.8778 73.802 23.9137C74.6693 24.0573 74.9222 24.6676 74.3803 25.3497C74.0188 25.7805 73.5491 26.1754 73.1159 26.4985C71.9597 27.3243 70.8035 28.1141 69.6112 28.868C65.5286 31.5246 61.482 34.2172 57.5797 37.1252C52.2327 41.146 47.1381 45.4903 42.4051 50.2291C33.3003 59.3837 24.593 68.8973 16.536 78.9857C14.874 81.0677 13.3927 83.3296 11.9113 85.5193C11.1165 86.7042 10.5023 87.9249 10.4661 89.3969Z" fill="#FFC300"/>
</g>
</g>
</g>
<defs>
<clipPath id="clip0_38:46">
<rect width="77" height="71" fill="white"/>
</clipPath>
</defs>
</svg>
