<svg width="214" height="203" viewBox="0 0 214 203" fill="none" xmlns="http://www.w3.org/2000/svg">
<g id="rocket-to-the-moon">
<g id="clouds">
<g id="Group" opacity="0.7">
<path id="Vector" opacity="0.7" d="M179.986 171.374C178.873 164.664 175.272 158.62 169.902 154.446C164.532 150.273 157.786 148.276 151.009 148.854C144.232 149.433 137.922 152.543 133.336 157.567C128.751 162.59 126.226 169.157 126.267 175.958C126.267 176.092 126.267 176.222 126.267 176.355C125.266 176.507 124.276 176.719 123.302 176.991C122.054 172.02 119.291 167.561 115.397 164.23C111.502 160.899 106.668 158.862 101.564 158.4C96.4605 157.938 91.3394 159.074 86.9099 161.651C82.4805 164.228 78.9619 168.119 76.8415 172.785C74.656 171.941 72.3605 171.417 70.0256 171.227C69.6533 169.113 69.0288 167.051 68.1653 165.086C67.76 158.884 65.0316 153.064 60.5244 148.785C56.0171 144.506 50.0625 142.084 43.8484 142.002C37.6343 141.92 31.6177 144.184 26.9988 148.341C22.3799 152.499 19.4984 158.246 18.9292 164.434C17.6499 167.143 16.8328 170.047 16.5117 173.026C10.8561 175.379 6.2755 179.748 3.65762 185.286C1.03973 190.824 0.571014 197.136 2.34231 203H200.297C201.329 199.58 201.607 195.976 201.112 192.438C200.617 188.9 199.361 185.512 197.431 182.506C195.5 179.5 192.941 176.948 189.929 175.026C186.918 173.104 183.525 171.858 179.986 171.374Z" fill="url(#paint0_linear)"/>
</g>
<path id="Vector_2" d="M168.447 182.725C168.45 185.057 168.107 187.375 167.431 189.606H122.013C120.915 185.958 120.706 182.099 121.404 178.353C121.443 178.148 121.482 177.939 121.528 177.737C122.671 172.432 125.597 167.679 129.82 164.27C134.042 160.86 139.305 159 144.732 159C145.478 159 146.211 159.033 146.937 159.104C147.263 159.13 147.589 159.169 147.915 159.212C153.602 159.986 158.816 162.794 162.591 167.118C166.366 171.441 168.447 176.986 168.447 182.725Z" fill="#EBEBEB"/>
<path id="Vector_3" d="M45.7921 190.662C58.897 190.662 69.5206 180.038 69.5206 166.933C69.5206 153.828 58.897 143.205 45.7921 143.205C32.6871 143.205 22.0635 153.828 22.0635 166.933C22.0635 180.038 32.6871 190.662 45.7921 190.662Z" fill="url(#paint1_linear)"/>
<path id="Vector_4" d="M46.4568 201.843C60.8069 201.843 72.44 190.21 72.44 175.86C72.44 161.51 60.8069 149.877 46.4568 149.877C32.1067 149.877 20.4736 161.51 20.4736 175.86C20.4736 190.21 32.1067 201.843 46.4568 201.843Z" fill="url(#paint2_linear)"/>
<path id="Vector_5" d="M179.738 200.266C192.843 200.266 203.467 189.643 203.467 176.538C203.467 163.433 192.843 152.809 179.738 152.809C166.633 152.809 156.01 163.433 156.01 176.538C156.01 189.643 166.633 200.266 179.738 200.266Z" fill="url(#paint3_linear)"/>
<path id="Vector_6" d="M123.149 182.595C123.153 186.347 122.265 190.047 120.559 193.389C118.853 196.731 116.377 199.62 113.336 201.817H85.5018C82.2074 199.436 79.5796 196.249 77.8702 192.561C76.1608 188.873 75.4269 184.808 75.739 180.756C76.0511 176.703 77.3987 172.798 79.6527 169.415C81.9066 166.033 84.9914 163.285 88.6115 161.437C92.2317 159.588 96.2658 158.7 100.328 158.858C104.389 159.015 108.343 160.213 111.809 162.337C115.275 164.46 118.137 167.438 120.122 170.985C122.108 174.532 123.148 178.53 123.146 182.595H123.149Z" fill="url(#paint4_linear)"/>
<path id="Vector_7" d="M152.576 199.68C152.576 200.39 152.544 201.093 152.481 201.788C152.484 201.798 152.484 201.808 152.481 201.817H105.213C105.148 201.114 105.115 200.4 105.115 199.683C105.111 194.005 107.145 188.514 110.848 184.209C114.55 179.904 119.675 177.071 125.289 176.225C126.463 176.049 127.647 175.959 128.834 175.958C129.44 175.958 130.043 175.981 130.639 176.023C134.892 176.348 138.979 177.813 142.47 180.263C145.962 182.714 148.729 186.059 150.481 189.948C150.578 190.163 150.673 190.382 150.761 190.6C151.959 193.477 152.576 196.563 152.576 199.68V199.68Z" fill="url(#paint5_linear)"/>
<path id="Vector_8" d="M197.423 194.933C197.426 197.264 197.083 199.583 196.407 201.814H150.989C149.891 198.165 149.682 194.307 150.38 190.561C150.419 190.356 150.458 190.147 150.504 189.945C151.647 184.64 154.573 179.887 158.796 176.477C163.018 173.068 168.281 171.208 173.708 171.208C174.454 171.208 175.187 171.24 175.913 171.312C176.239 171.338 176.565 171.377 176.891 171.42C182.578 172.193 187.792 175.002 191.567 179.325C195.342 183.649 197.423 189.194 197.423 194.933V194.933Z" fill="url(#paint6_linear)"/>
<path id="Vector_9" d="M95.2889 194.78C95.2915 197.111 94.9489 199.43 94.2724 201.661H48.8548C47.7567 198.012 47.5478 194.154 48.2455 190.408C48.2846 190.202 48.3237 189.994 48.3693 189.792C49.5126 184.487 52.4392 179.734 56.6613 176.324C60.8835 172.915 66.1465 171.055 71.5733 171.055C72.3194 171.055 73.0525 171.087 73.7791 171.159C74.1049 171.185 74.4307 171.224 74.7565 171.266C80.4437 172.04 85.6577 174.849 89.4329 179.172C93.208 183.495 95.2885 189.04 95.2889 194.78Z" fill="#EBEBEB"/>
<path id="Vector_10" d="M51.6007 201.679C51.6789 201.431 51.7473 201.184 51.8157 200.933C52.8959 196.893 52.89 192.639 51.7985 188.602C50.7071 184.565 48.5688 180.888 45.6 177.943C42.6312 174.998 38.9373 172.889 34.8918 171.829C30.8463 170.77 26.5927 170.798 22.5614 171.91C21.6175 172.169 20.6913 172.489 19.7888 172.868C14.3545 175.129 9.95325 179.327 7.43823 184.648C4.9232 189.969 4.47359 196.035 6.17655 201.669H51.6007V201.679Z" fill="url(#paint7_linear)"/>
<g id="Group_2" opacity="0.7">
<path id="Vector_11" opacity="0.7" d="M188.405 153.015C190.809 153.015 192.758 151.066 192.758 148.662C192.758 146.258 190.809 144.309 188.405 144.309C186.001 144.309 184.052 146.258 184.052 148.662C184.052 151.066 186.001 153.015 188.405 153.015Z" fill="url(#paint8_linear)"/>
</g>
<path id="Vector_12" d="M188.405 152.695C190.632 152.695 192.438 150.89 192.438 148.662C192.438 146.434 190.632 144.628 188.405 144.628C186.177 144.628 184.371 146.434 184.371 148.662C184.371 150.89 186.177 152.695 188.405 152.695Z" fill="url(#paint9_linear)"/>
<g id="Group_3" opacity="0.7">
<path id="Vector_13" opacity="0.7" d="M208.338 195.409C210.96 195.409 213.085 193.283 213.085 190.662C213.085 188.04 210.96 185.915 208.338 185.915C205.716 185.915 203.591 188.04 203.591 190.662C203.591 193.283 205.716 195.409 208.338 195.409Z" fill="url(#paint10_linear)"/>
</g>
<path id="Vector_14" d="M208.338 195.171C210.828 195.171 212.847 193.152 212.847 190.662C212.847 188.171 210.828 186.153 208.338 186.153C205.847 186.153 203.829 188.171 203.829 190.662C203.829 193.152 205.847 195.171 208.338 195.171Z" fill="url(#paint11_linear)"/>
<g id="Group_4" opacity="0.7">
<path id="Vector_15" opacity="0.7" d="M5.21618 168.826C8.097 168.826 10.4324 166.491 10.4324 163.61C10.4324 160.729 8.097 158.394 5.21618 158.394C2.33536 158.394 0 160.729 0 163.61C0 166.491 2.33536 168.826 5.21618 168.826Z" fill="url(#paint12_linear)"/>
</g>
<path id="Vector_16" d="M5.21598 168.591C7.96724 168.591 10.1976 166.361 10.1976 163.61C10.1976 160.859 7.96724 158.628 5.21598 158.628C2.46471 158.628 0.234375 160.859 0.234375 163.61C0.234375 166.361 2.46471 168.591 5.21598 168.591Z" fill="url(#paint13_linear)"/>
<path id="Vector_17" d="M208.338 195.171C210.828 195.171 212.847 193.152 212.847 190.662C212.847 188.171 210.828 186.153 208.338 186.153C205.847 186.153 203.829 188.171 203.829 190.662C203.829 193.152 205.847 195.171 208.338 195.171Z" fill="url(#paint14_linear)"/>
</g>
<g id="rocket">
<g id="rocket_without_dust">
<g id="rocket-flame">
<path id="flame-biggest" d="M121.921 111.349C121.921 121.427 107.539 135 107.539 135C107.539 135 93.1558 121.427 93.1558 111.349C93.1558 101.271 99.5954 98.5037 107.539 98.5037C115.482 98.5037 121.921 101.271 121.921 111.349Z" fill="#F17F21"/>
<path id="flame-normal" d="M117.465 109.356C117.465 116.312 107.538 125.679 107.538 125.679C107.538 125.679 97.6118 116.312 97.6118 109.356C97.6118 102.4 102.056 100.49 107.538 100.49C113.021 100.49 117.465 102.4 117.465 109.356Z" fill="#EDB420"/>
<path id="flame-smallest" d="M113.289 106.025C113.289 110.054 107.539 115.481 107.539 115.481C107.539 115.481 101.789 110.054 101.789 106.025C101.789 101.996 104.363 100.89 107.539 100.89C110.714 100.89 113.289 101.996 113.289 106.025Z" fill="#F7CB6D"/>
</g>
<g id="rocket-body">
<g id="second-plan">
<g id="wings">
<path id="Vector_18" d="M95.8053 75.2881C95.8053 75.2881 76 85.6087 76 107.971C76 107.971 77.2382 110.429 79.2187 107.479C81.1989 104.531 82.9321 96.4215 95.5575 96.4215L95.8053 75.2881Z" fill="#EA395A"/>
<path id="Vector_19" d="M119.173 75.2881C119.173 75.2881 138.978 85.6087 138.978 107.971C138.978 107.971 137.74 110.429 135.76 107.479C133.779 104.531 132.047 96.4215 119.421 96.4215L119.173 75.2881Z" fill="#BC3749"/>
</g>
<g id="main">
<path id="Vector_20" d="M129.479 53.5593C129.479 44.4035 127.921 35.7839 125.6 28.2471H107.49V35.896C114.19 35.896 119.621 41.2877 119.621 47.9379C119.621 54.5882 114.189 59.98 107.49 59.98V98.6807H119.342C125.438 89.1602 129.479 72.5089 129.479 53.5593Z" fill="#1C3F57"/>
<path id="Vector_21" d="M95.3581 47.9379C95.3581 41.2877 100.79 35.896 107.489 35.896V28.2471H89.3797C87.0589 35.784 85.5005 44.4035 85.5005 53.5593C85.5005 72.5089 89.541 89.1602 95.6378 98.6807H107.489V59.98C100.79 59.98 95.3581 54.5883 95.3581 47.9379Z" fill="#325E78"/>
<path id="Vector_22" d="M95.8071 98.7174C95.5004 98.7174 95.252 98.9638 95.252 99.2681V101.836C95.252 102.139 95.5004 102.385 95.8071 102.385H107.489V98.7173H95.8071V98.7174Z" fill="#E7C634"/>
<path id="Vector_23" d="M119.161 98.7175H107.489V102.385H119.161C119.467 102.385 119.715 102.14 119.715 101.836V99.2683C119.715 98.964 119.467 98.7175 119.161 98.7175Z" fill="#CEAE2D"/>
<path id="Vector_24" d="M115.802 47.938C115.802 52.4948 112.08 56.1891 107.489 56.1891V59.98C114.189 59.98 119.621 54.5883 119.621 47.938C119.621 41.2876 114.189 35.896 107.489 35.896V39.6877C112.08 39.6877 115.802 43.3811 115.802 47.938Z" fill="#CEAE2D"/>
<path id="Vector_25" d="M95.3584 47.938C95.3584 54.5882 100.79 59.98 107.489 59.98V56.1891C102.899 56.1891 99.1776 52.4949 99.1776 47.938C99.1776 43.381 102.899 39.6875 107.489 39.6875V35.896C100.79 35.896 95.3584 41.2877 95.3584 47.938Z" fill="#E7C634"/>
<path id="Vector_26" d="M115.802 47.9378C115.802 43.381 112.08 39.6875 107.489 39.6875V56.1889C112.08 56.1889 115.802 52.4947 115.802 47.9378Z" fill="#84D0D1"/>
<path id="Vector_27" d="M99.1772 47.9378C99.1772 52.4946 102.899 56.1889 107.489 56.1889V39.6875C102.899 39.6875 99.1772 43.3809 99.1772 47.9378Z" fill="#A7DDE3"/>
</g>
</g>
<g id="first-plan">
<path id="Vector_28" d="M107.489 0V28.2472H125.599C120.42 11.4326 111.444 0 107.489 0Z" fill="#BC3749"/>
<path id="Vector_29" d="M107.489 0C103.534 0 94.5577 11.4325 89.3794 28.2472H107.489V0Z" fill="#EA395A"/>
<path id="Vector_30" d="M108.253 81.4075C108.192 81.3882 108.128 81.3774 108.061 81.3774H108.045H107.489V108.96H108.114H108.13C108.479 108.96 108.762 108.68 108.762 108.334V107.496L108.786 106.286L110.539 84.106C110.539 81.8577 108.638 81.504 108.253 81.4075Z" fill="#BC3749"/>
<path id="Vector_31" d="M106.865 81.3774H106.848C106.782 81.3774 106.717 81.3881 106.658 81.4075C106.546 81.435 106.422 81.4833 106.301 81.554C105.61 81.7766 104.439 82.3734 104.439 84.1388L106.194 106.34L106.216 107.464V108.301C106.216 108.564 106.38 108.789 106.611 108.882C106.702 108.932 106.806 108.96 106.917 108.96H106.934H107.489V81.3774H106.865Z" fill="#EA395A"/>
</g>
</g>
</g>
</g>
</g>
<defs>
<linearGradient id="paint0_linear" x1="116148" y1="51080.1" x2="116148" y2="39657.2" gradientUnits="userSpaceOnUse">
<stop stop-color="#808080" stop-opacity="0.25"/>
<stop offset="0.54" stop-color="#808080" stop-opacity="0.12"/>
<stop offset="1" stop-color="#808080" stop-opacity="0.1"/>
</linearGradient>
<linearGradient id="paint1_linear" x1="45.7921" y1="143.205" x2="45.7921" y2="190.662" gradientUnits="userSpaceOnUse">
<stop stop-color="#F2F2F2"/>
<stop offset="0.31" stop-color="#E6E6E6"/>
<stop offset="0.77" stop-color="#CCCCCC"/>
</linearGradient>
<linearGradient id="paint2_linear" x1="14173.5" y1="31688.8" x2="14173.5" y2="39977.4" gradientUnits="userSpaceOnUse">
<stop stop-color="#F2F2F2"/>
<stop offset="0.31" stop-color="#E6E6E6"/>
<stop offset="0.77" stop-color="#CCCCCC"/>
</linearGradient>
<linearGradient id="paint3_linear" x1="28271.5" y1="29611.8" x2="28271.5" y2="36524.5" gradientUnits="userSpaceOnUse">
<stop stop-color="#F2F2F2"/>
<stop offset="0.31" stop-color="#E6E6E6"/>
<stop offset="0.77" stop-color="#CCCCCC"/>
</linearGradient>
<linearGradient id="paint4_linear" x1="27363.4" y1="30223.4" x2="27363.4" y2="35889.1" gradientUnits="userSpaceOnUse">
<stop stop-color="#F2F2F2"/>
<stop offset="0.31" stop-color="#E6E6E6"/>
<stop offset="0.77" stop-color="#CCCCCC"/>
</linearGradient>
<linearGradient id="paint5_linear" x1="31667.7" y1="19621.7" x2="31667.7" y2="21674.7" gradientUnits="userSpaceOnUse">
<stop stop-color="#F2F2F2"/>
<stop offset="0.31" stop-color="#E6E6E6"/>
<stop offset="0.77" stop-color="#CCCCCC"/>
</linearGradient>
<linearGradient id="paint6_linear" x1="38235.3" y1="22740.7" x2="38235.3" y2="25616.4" gradientUnits="userSpaceOnUse">
<stop stop-color="#F2F2F2"/>
<stop offset="0.31" stop-color="#E6E6E6"/>
<stop offset="0.77" stop-color="#9A9191"/>
</linearGradient>
<linearGradient id="paint7_linear" x1="17015.6" y1="22753.7" x2="17015.6" y2="25631.1" gradientUnits="userSpaceOnUse">
<stop stop-color="#F2F2F2"/>
<stop offset="0.31" stop-color="#E6E6E6"/>
<stop offset="0.77" stop-color="#CCCCCC"/>
</linearGradient>
<linearGradient id="paint8_linear" x1="6368.76" y1="5512.44" x2="6368.76" y2="5279.83" gradientUnits="userSpaceOnUse">
<stop stop-color="#808080" stop-opacity="0.25"/>
<stop offset="0.54" stop-color="#808080" stop-opacity="0.12"/>
<stop offset="1" stop-color="#808080" stop-opacity="0.1"/>
</linearGradient>
<linearGradient id="paint9_linear" x1="5915.41" y1="4911.34" x2="5915.41" y2="5111.08" gradientUnits="userSpaceOnUse">
<stop stop-color="#F2F2F2"/>
<stop offset="0.31" stop-color="#E6E6E6"/>
<stop offset="0.77" stop-color="#CCCCCC"/>
</linearGradient>
<linearGradient id="paint10_linear" x1="7529.29" y1="7275.59" x2="7529.29" y2="6999.03" gradientUnits="userSpaceOnUse">
<stop stop-color="#808080" stop-opacity="0.25"/>
<stop offset="0.54" stop-color="#808080" stop-opacity="0.12"/>
<stop offset="1" stop-color="#808080" stop-opacity="0.1"/>
</linearGradient>
<linearGradient id="paint11_linear" x1="208.338" y1="186.153" x2="208.338" y2="195.171" gradientUnits="userSpaceOnUse">
<stop stop-color="#F2F2F2"/>
<stop offset="0.31" stop-color="#E0E0E0"/>
<stop offset="0.77" stop-color="#B3B3B3"/>
</linearGradient>
<linearGradient id="paint12_linear" x1="1545.76" y1="7097.58" x2="1545.76" y2="6763.53" gradientUnits="userSpaceOnUse">
<stop stop-color="#808080" stop-opacity="0.25"/>
<stop offset="0.54" stop-color="#808080" stop-opacity="0.12"/>
<stop offset="1" stop-color="#808080" stop-opacity="0.1"/>
</linearGradient>
<linearGradient id="paint13_linear" x1="1476.48" y1="6473.91" x2="1476.48" y2="6778.68" gradientUnits="userSpaceOnUse">
<stop stop-color="#F2F2F2"/>
<stop offset="0.31" stop-color="#E6E6E6"/>
<stop offset="0.77" stop-color="#CCCCCC"/>
</linearGradient>
<linearGradient id="paint14_linear" x1="7162.48" y1="6664.4" x2="7162.48" y2="6914.03" gradientUnits="userSpaceOnUse">
<stop stop-color="#F2F2F2"/>
<stop offset="0.31" stop-color="#E6E6E6"/>
<stop offset="0.77" stop-color="#CCCCCC"/>
</linearGradient>
</defs>
</svg>
