<svg  viewBox="0 0 354 437" fill="none" xmlns="http://www.w3.org/2000/svg">
<g id="traingles">
<path id="Polygon 1" class="polygon" d="M166 52.0122L217.962 142.012H114.038L166 52.0122Z" fill="#FFC300"/>
<path id="Polygon 2" class="polygon" d="M220 141.961L271.962 51.9613L323.923 141.961L220 141.961Z" fill="#FFC300"/>
<path id="Polygon 3" class="polygon" d="M268.363 235.513L219 321.013L169.637 235.513L268.363 235.513Z" stroke="#FFC300" stroke-width="3"/>
<path id="Polygon 4" class="polygon" d="M165.961 236.974L215.325 322.474L116.598 322.474L165.961 236.974Z" stroke="#FFC300" stroke-width="3"/>
<path id="Polygon 5" class="polygon" d="M61 232.974L112.962 142.974L164.923 232.974L61 232.974Z" fill="#FFC300"/>
<path id="Polygon 6" class="polygon" d="M268.325 231.474L169.598 231.474L218.962 145.974L268.325 231.474Z" stroke="#FFC300" stroke-width="3"/>
<path id="Polygon 7" class="polygon" d="M164.923 51.9737L112.961 141.974L60.9998 51.9737L164.923 51.9737Z" fill="#FFC300"/>
<path id="Polygon 8" class="polygon" d="M60 52L111.962 142H8.03848L60 52Z" fill="#EDF2F4"/>
<path id="Polygon 9" class="polygon" d="M222.637 322.5L272 237L321.363 322.5H222.637Z" stroke="#EDF2F4" stroke-width="3"/>
<path id="Polygon 10" class="polygon" d="M271.962 411.961L222.598 326.461L321.325 326.461L271.962 411.961Z" stroke="#EDF2F4" stroke-width="3"/>
</g>
</svg>
