<svg width="495" height="430" viewBox="0 0 495 430" fill="none" xmlns="http://www.w3.org/2000/svg">
<g id="traingles-mini">
<path id="Polygon 8" d="M237.301 269.481L237.301 154.769L336.644 212.125L237.301 269.481Z" fill="#FFC300"/>
<path id="Polygon 7" d="M398.12 129.304L284.646 146.101L326.836 39.4305L398.12 129.304Z" fill="#FFC300"/>
<path id="Polygon 17" d="M110.026 258.587L138.371 364.371L32.5871 336.026L110.026 258.587Z" stroke="#FFC300" stroke-width="3"/>
<path id="Polygon 4" d="M385.128 301.485L324.805 338.123L323.238 267.563L385.128 301.485Z" stroke="#FFC300" stroke-width="3"/>
<path id="Polygon 15" d="M420.991 242.874L363.651 242.874L392.321 193.216L420.991 242.874Z" stroke="#FFC300" stroke-width="3"/>
<path id="Polygon 14" d="M479.519 115.415L434.662 142.659L433.497 90.1893L479.519 115.415Z" stroke="#EDF2F4" stroke-width="3"/>
<path id="Polygon 13" d="M150.439 273.591L184.644 239.386L197.164 286.111L150.439 273.591Z" stroke="#EDF2F4" stroke-width="3"/>
<path id="Polygon 11" d="M162.931 318.781L276.557 303.041L233.375 409.314L162.931 318.781Z" fill="#EDF2F4"/>
<path id="Polygon 12" d="M100.698 135.831L211.5 165.52L130.387 246.633L100.698 135.831Z" fill="#EDF2F4"/>
<path id="Polygon 16" d="M169.403 125.823L197.748 20.0393L275.187 97.4782L169.403 125.823Z" stroke="#EDF2F4" stroke-width="3"/>
</g>
</svg>
